#!OML:ASF X:\für Bonn\!DataBase\2005_08_11_Bastian_Final\c3d\Bastian.ASF
:FULLY-SPECIFIED
:DEGREES
201
root 22.5438 16.2984 -2.18466 361.372 -71.4586 34.0136
lowerback 78.4388 -4.94253 12.4103
upperback 9.57748 2.27717 -0.0966977
thorax -8.97429 0.39032 -5.63632
lowerneck 2.12985 -8.73047 3.11324
upperneck -27.989 -10.6868 8.38002
head -8.80611 -6.82549 3.26569
rclavicle 2.54444e-014 1.59028e-015
rhumerus 60.0853 -21.105 -59.3404
rradius 15.5015
rwrist 12.9853
rhand -43.7813 -4.96881
rfingers 7.12502
rthumb -16.6106 -34.278
lclavicle 2.54444e-014 1.59028e-015
lhumerus -16.9883 -30.1549 88.0986
lradius 51.5765
lwrist 32.3478
lhand -13.1703 -16.0408
lfingers 7.12502
lthumb 12.929 13.5387
rfemur -72.6757 -6.34844 14.1817
rtibia 65.4043
rfoot -17.382 -8.99924
rtoes 1.42195
lfemur -68.5714 -7.46187 -28.9358
ltibia 47.6769
lfoot -4.01924 -6.15412
ltoes -19.5288
202
root 22.5316 16.3055 -2.18192 361.541 -71.3488 33.8537
lowerback 78.3725 -4.93723 12.4018
upperback 9.62111 2.26721 -0.0799091
thorax -8.93239 0.389804 -5.61136
lowerneck 2.16452 -8.72965 3.09731
upperneck -27.97 -10.6811 8.39096
head -8.80394 -6.82052 3.27202
rclavicle 3.18055e-015 3.02153e-014
rhumerus 60.1514 -21.2161 -59.6297
rradius 15.4418
rwrist 13.1998
rhand -43.7244 -4.9183
rfingers 7.12502
rthumb -16.5559 -34.232
lclavicle 3.18055e-015 3.02153e-014
lhumerus -16.8176 -30.1349 88.0928
lradius 51.4952
lwrist 32.3657
lhand -13.1779 -16.1289
lfingers 7.12502
lthumb 12.9217 13.451
rfemur -72.5758 -6.44925 14.2308
rtibia 65.3387
rfoot -17.4054 -9.0096
rtoes 1.39587
lfemur -68.451 -7.52284 -28.9213
ltibia 47.5382
lfoot -3.98284 -6.20308
ltoes -19.3101
203
root 22.5208 16.3124 -2.17908 361.736 -71.2279 33.6539
lowerback 78.2708 -4.93384 12.4096
upperback 9.68964 2.26005 -0.0540897
thorax -8.86302 0.391731 -5.58381
lowerneck 2.12014 -8.7357 3.11227
upperneck -27.883 -10.6976 8.36649
head -8.76737 -6.82311 3.25424
rclavicle -7.63333e-014 -3.18055e-015
rhumerus 60.0467 -21.1977 -59.5579
rradius 15.4697
rwrist 13.0423
rhand -43.6626 -4.93657
rfingers 7.12502
rthumb -16.4964 -34.2553
lclavicle -7.63333e-014 -3.18055e-015
lhumerus -16.6243 -30.1187 88.1026
lradius 51.3975
lwrist 32.4006
lhand -13.2323 -16.2058
lfingers 7.12502
lthumb 12.8693 13.3775
rfemur -72.466 -6.56264 14.295
rtibia 65.2721
rfoot -17.4433 -9.01634
rtoes 1.39988
lfemur -68.326 -7.60837 -28.8901
ltibia 47.3968
lfoot -3.95467 -6.20773
ltoes -19.3817
204
root 22.5108 16.3186 -2.17662 361.967 -71.1033 33.4453
lowerback 78.1167 -4.94193 12.4175
upperback 9.78755 2.22851 -0.0350195
thorax -8.76654 0.387277 -5.55581
lowerneck 2.03043 -8.72529 3.06078
upperneck -27.8129 -10.6886 8.39376
head -8.72096 -6.81409 3.26
rclavicle 2.54444e-014 -1.27222e-014
rhumerus 60.2008 -21.3222 -59.9338
rradius 15.3965
rwrist 13.2587
rhand -43.5439 -4.85073
rfingers 7.12502
rthumb -16.3821 -34.1789
lclavicle 2.54444e-014 -1.27222e-014
lhumerus -16.3928 -30.0713 88.0406
lradius 51.3437
lwrist 32.4662
lhand -13.2315 -16.2461
lfingers 7.12502
lthumb 12.8701 13.337
rfemur -72.3958 -6.67713 14.3752
rtibia 65.202
rfoot -17.4538 -9.05082
rtoes 1.26337
lfemur -68.2347 -7.69698 -28.8404
ltibia 47.2537
lfoot -3.92014 -6.24061
ltoes -19.2619
